PathFileType	4	(X/Y/Z)	Patient4_TMGait_0pt6_02_right_10.trc.trc
DataRate	CameraRate	NumFrames	NumMarkers	Units	OrigDataRate	OrigDataStartFrame	OrigNumFrames
75.675675675676	75.675675675676	4	33	mm	75.675675675676	36	       141
Frame#	Time	Sacral			L.Shoulder			Chest			R.Shoulder			Neck			R.ASIS			L.ASIS			R.Thigh.Superior			R.Thigh.Lateral			R.Thigh.Inferior			R.Patella			L.Thigh.Superior			L.Thigh.Lateral			L.Thigh.Inferior			L.Patella			L.Shank.Superior			L.Shank.Lateral			L.Shank.Inferior			R.Shank.Superior			R.Shank.Lateral			R.Shank.Inferior			R.Heel			R.Midfoot.Superior			R.Midfoot.Lateral			R.Toe			L.Heel			L.Midfoot.Lateral			L.Midfoot.Superior			L.Toe			L.Elbow			L.Wrist			R.Elbow			R.Wrist			
		X1	Y1	Z1	X2	Y2	Z2	X3	Y3	Z3	X4	Y4	Z4	X5	Y5	Z5	X6	Y6	Z6	X7	Y7	Z7	X8	Y8	Z8	X9	Y9	Z9	X10	Y10	Z10	X11	Y11	Z11	X12	Y12	Z12	X13	Y13	Z13	X14	Y14	Z14	X15	Y15	Z15	X16	Y16	Z16	X17	Y17	Z17	X18	Y18	Z18	X19	Y19	Z19	X20	Y20	Z20	X21	Y21	Z21	X22	Y22	Z22	X23	Y23	Z23	X24	Y24	Z24	X25	Y25	Z25	X26	Y26	Z26	X27	Y27	Z27	X28	Y28	Z28	X29	Y29	Z29	X30	Y30	Z30	X31	Y31	Z31	X32	Y32	Z32	X33	Y33	Z33	

36	12.052500000000	779.659301943430	996.602189182058	482.101154425917	944.159201191976	1432.176291415597	312.248615220128	1048.143810995120	1362.685867595538	472.311888381696	960.834130481507	1430.085929758899	645.851673313551	926.732742247098	1489.081321769715	467.779103832546	1008.367948689170	938.070301894803	598.927196392244	992.931382185575	957.749177374412	324.714527650849	1072.615727322007	749.317539974876	562.610219963028	1008.465757856993	631.802232687160	623.390049543828	1089.752939281943	590.224903289502	539.802943481678	1102.602433355518	499.879703187789	545.840343343937	1028.116263605132	734.004971415785	345.190030273127	934.585215497101	622.399241731706	282.680220505543	1020.132730055977	534.698707239739	337.177959971953	1008.130876369175	448.811607629630	333.650915433712	936.228483317688	393.972568079935	332.906984776834	791.148676733532	356.439905379367	294.510047788784	775.299365573228	229.864908552678	353.515286539732	1078.383752707882	408.887174287566	553.179734608497	1014.552148649208	300.487391118333	615.370783697840	1060.251200926286	208.641073623899	550.224856107199	934.446935559916	41.904256330404	519.646810303530	1105.116690704962	97.635085566465	552.690958472963	1018.512559915400	36.736325440971	593.576530164253	1226.395078583578	46.155458326033	579.509028219286	584.976381413052	170.592841022112	403.394142965828	637.743187970976	119.677628749402	324.187218514899	742.363707736195	127.915529409099	340.226913553492	817.743708759932	30.559683301726	318.196761689648	951.788752792198	1077.337162087434	196.854921658662	1081.319536573890	849.474789783173	191.474332628136	918.168709454978	1081.110674391571	757.846184605864	1049.446219979115	855.864141456701	760.110242154483	
37	12.065714285714	779.830336738517	997.196258226956	485.878005553941	942.592327107713	1432.680178036987	314.368516184771	1048.397921706832	1363.307601050202	473.325952330243	963.102338383508	1430.700879904765	647.837742069750	927.032128410835	1489.686621536155	470.058411542344	1009.459918551966	938.876495835644	600.739644495925	991.931630128294	958.133449476912	326.731357980318	1071.605606291240	748.307510725230	565.618258050603	1005.914149109329	631.715508140702	625.754476550300	1086.799016076529	589.375850598100	542.090864490707	1098.679839195320	498.962984048586	547.793276979362	1033.737386094122	737.288832082746	346.768872724595	944.797285143317	623.136777769900	283.209255887048	1033.618369990911	537.597674711155	337.147400576372	1023.192264526081	450.532329067137	332.950355444590	949.622487804182	395.681623219974	332.460990621497	802.991666746999	363.238416879479	294.517959852411	783.224729123853	237.045501535799	353.175146150842	1073.631447554947	408.233469012328	554.767419090451	1009.061762105190	300.138677375433	616.614042855916	1053.786355332406	208.211391553957	550.975652472463	926.779336527382	41.970009680073	519.878456474029	1097.532493433087	97.585917751959	553.078443336686	1010.802475940661	36.701997556007	593.770490056541	1218.775308359195	45.737221858182	579.801252684101	590.966191375121	187.605012219201	403.394696565768	640.652478822630	133.285124118683	324.083466510733	746.054018310692	134.979631545172	339.876956641590	814.566169230316	30.257203228424	317.668276901046	944.747886333511	1077.169876852062	200.397314502389	1061.195172911409	842.514289742585	190.970756272388	927.709635671014	1081.918017076631	763.112711143047	1068.815526323737	862.857840855015	763.923076556896	
38	12.078928571429	779.734550711588	997.807616752218	489.449591399309	940.949858925235	1433.083048001834	316.324361690266	1048.566723224026	1363.763026822555	474.121271947224	965.375116972789	1431.218251300742	649.628165719408	927.364510825945	1490.231985066068	472.140116297517	1010.156473420745	939.554467896738	602.487360732467	990.725087062361	958.341883114377	328.684280643959	1070.286857398204	747.357771396111	568.738097571601	1002.958486789333	631.590218837696	628.079269365537	1083.600144811273	588.539631516440	544.498746099745	1094.485072583749	498.089113076834	549.848491465019	1038.979848192537	740.850992737050	348.393244922936	954.652871850148	624.417313968678	283.739938355830	1046.497967183881	541.190417400944	337.290570734492	1037.840569421337	453.064161013074	332.530253511652	962.987474987102	398.002096365063	332.176831123453	815.167895051928	369.912218257288	294.543352881826	792.049670679243	244.132879192402	352.980966086946	1068.667131511578	407.612432911894	556.386448540111	1003.336833468889	299.804915596765	617.827704920359	1047.216967181900	207.824835052305	551.757385181365	919.044016013202	42.083336927583	520.098336194272	1089.930211251174	97.490430284602	553.455069746330	1003.027789231291	36.676428900836	593.944212385483	1211.096957978514	45.198004665394	580.062113072317	598.432099090390	203.120417557541	403.492565326458	645.396143192121	146.138767908110	323.989783176793	751.280678445305	142.190166081283	339.605916762566	813.707321634311	30.630872384099	316.958733512871	937.123947204018	1077.121679630263	203.379347101039	1040.845048680865	836.891368907224	190.600749262460	937.335774179807	1082.838278550147	768.160721276856	1087.980110469832	870.390364968233	767.331532844390	
39	12.092142857143	779.400453934024	998.466796478578	492.788908648911	939.267849699090	1433.449831083711	318.121703456963	1048.644298251589	1364.105251646346	474.724793086819	967.616873937015	1431.704031103613	651.223132139981	927.725724265693	1490.772959095033	474.019779970354	1010.468863583270	940.151629046213	604.178569103306	989.349658780826	958.477374998128	330.573635265702	1068.706423870679	746.533753382171	571.842697730111	999.698409075354	631.484850107981	630.296334336272	1080.214250841238	587.763418245612	546.928032115547	1090.074226563161	497.288367192327	551.919802185333	1043.737772151237	744.710577007271	350.094334524840	963.971821123292	626.274851589371	284.307159811359	1058.589943292615	545.469297157748	337.597891228945	1051.879697509444	456.403255562741	332.343187078273	976.142198982644	400.915924770222	332.032521359159	827.465390973641	376.262003196417	294.602353005243	801.731546145764	250.835793458252	352.895340719110	1063.539399820669	407.054101800042	557.984531144824	997.416314475266	299.534416495321	618.992707965248	1040.561252648845	207.505117368270	552.553221201095	911.238746775646	42.247596629664	520.313664737036	1082.300965499360	97.370064527364	553.815476015875	995.194134363951	36.669458131458	594.105125233880	1203.355079756429	44.586125621182	580.292071679667	607.256488039043	216.385125915763	403.659034048120	652.038868242476	157.565326117645	323.882519928426	758.177220916156	149.170798739137	339.366003207269	815.675345004687	31.746762244360	316.059186544070	928.930084093398	1077.282625158512	205.835905903268	1020.475817919365	832.583487568374	190.395761579033	947.018334911077	1083.902941182555	772.894646811608	1106.835672360142	878.458269650978	770.280831963198	
